<?xml version="1.0"?> <svg xmlns="http://www.w3.org/2000/svg" width="113" height="50" viewBox="0 0 113 50" fill="none"><path fill-rule="evenodd" clip-rule="evenodd" d="M111.675 26.906L112.24 21.9659L100.837 22.7289L95.8825 23.0587L90.3183 37.506L87.9355 23.5871L82.6239 23.9395L86.7924 44.5961L92.3948 44.2404L100.694 23.9987L98.4686 43.857L109.812 43.1312L110.339 38.5464L104.306 38.9365L104.706 35.414L110.745 35.0193L111.312 30.0822L105.265 30.4798L105.624 27.3077L111.675 26.906Z" fill="#F45959"></path><mask id="mask0" maskUnits="userSpaceOnUse" x="0" y="0" width="103" height="50"><path fill-rule="evenodd" clip-rule="evenodd" d="M0.0198975 0.170532H102.478V49.9801H0.0198975V0.170532Z" fill="white"></path></mask><g mask="url(#mask0)"><path fill-rule="evenodd" clip-rule="evenodd" d="M74.856 45.3411L79.8129 45.0275L82.0732 23.9656L77.0907 24.2944L74.856 45.3411Z" fill="#F45959"></path><path fill-rule="evenodd" clip-rule="evenodd" d="M53.7685 39.3785L56.5394 32.4858L57.9315 39.113L53.7685 39.3785ZM30.293 41.1451C31.9404 40.4613 33.2106 39.612 34.1199 38.4269C34.5679 37.8431 34.9245 37.1938 35.1917 36.4792L34.1821 47L30.293 41.1451ZM29.1874 36.6785C28.4841 37.056 27.2149 37.3034 25.444 37.4153L25.9109 32.4093C28.0384 32.2726 29.2606 32.3991 29.8848 32.7679C30.3735 33.0593 30.5742 33.6653 30.4868 34.5842C30.395 35.5699 29.9613 36.2683 29.1874 36.6785ZM20.1709 41.1616L15.4384 41.459C14.6341 42.5451 13.699 43.5507 12.6692 44.0987C11.9381 44.4858 11.1695 44.7199 10.3652 44.7699C9.08212 44.8504 8.01159 44.5842 7.15364 43.9543C6.44735 43.4295 5.93642 42.7024 5.6192 41.7649C5.35629 40.9752 5.26225 40.154 5.33808 39.2957C5.34868 39.1722 5.36093 39.0709 5.37252 38.9888C5.38377 38.9077 5.39834 38.8242 5.41622 38.7385C5.71258 37.3348 6.41987 36.1295 7.53973 35.1202C8.6606 34.11 9.95 33.5573 11.4103 33.4646C12.3606 33.404 13.2036 33.5308 13.9325 33.9216C14.7884 34.3792 15.4788 35.2408 16.0268 36.2424L20.6513 35.9484L20.1709 41.1616ZM76.2533 24.3507L63.0921 25.2186L62.5897 30.1189L66.4974 29.8649L64.9391 44.8712L59.3123 25.4745L55.1354 25.7484L45.4924 46.309L45.8533 42.6563L39.4844 43.058L39.8238 39.5706L46.199 39.1669L46.6808 34.2802L40.2987 34.6891L40.603 31.5507L46.9901 31.1375L47.4702 26.2504L36.1023 26.9911L35.654 31.6613C35.5993 31.3729 35.5288 31.0981 35.4377 30.8401C35.0447 29.7431 34.3255 28.859 33.2672 28.3176C32.0268 27.6851 30.3437 27.3719 28.2086 27.5106L21.3861 27.9527L20.8901 33.3471C20.2732 32.3964 19.8699 31.5544 19.2331 30.8567C18.2772 29.808 17.0328 29.0749 15.5795 28.656C14.4526 28.3302 13.2093 28.2116 11.8927 28.2957C9.55596 28.4471 7.45265 29.156 5.60232 30.4219C3.9851 31.5305 2.66424 32.9845 1.64768 34.7828C0.733443 36.4044 0.200331 38.0676 0.0506619 39.7726C-0.231788 43.0103 0.663907 45.5974 2.73907 47.5342C4.67119 49.3394 7.07483 50.153 9.95331 49.9765C12.401 49.8255 14.7228 48.9193 16.7576 47.2646C18.002 46.2497 19.1089 45.0583 19.9374 43.6987L19.4639 48.8063L24.4076 48.5L25.0212 41.9474L28.4192 48.252L34.752 47.8583L34.751 47.8567L44.9811 47.2186L45.3861 47.1941L50.5427 46.8712L51.945 44.007L58.85 43.5712L59.5997 46.3027L65.251 45.9474L65.2503 45.9457L69.7781 45.66L71.4709 29.5408L75.7354 29.262L76.2533 24.3507Z" fill="#F45959"></path><path fill-rule="evenodd" clip-rule="evenodd" d="M24.8828 12.2911L26.3467 18.8795L22.1659 19.1543L24.8828 12.2911ZM56.1895 13.6533C56.3623 11.9149 57.1183 10.4927 58.46 9.37153C59.6246 8.39504 60.9087 7.85894 62.3126 7.76325C63.0385 7.71424 63.7504 7.90563 64.4606 8.20066C65.0414 8.44835 65.6858 8.96623 66.4083 9.61292L71.8825 9.24139L71.6663 11.3427L60.602 12.0897L60.1805 16.2858L66.1729 15.8844C65.3802 16.9808 64.4948 17.8573 63.5289 18.3894C62.7981 18.7914 62.0189 19.0523 61.1984 19.1066C59.7014 19.207 58.4567 18.757 57.4669 17.7245C56.4504 16.6669 56.0239 15.3149 56.1895 13.6533ZM77.1236 6.59537C79.2686 6.44868 80.507 6.56954 81.1318 6.93808C81.6206 7.2308 81.8189 7.84007 81.7216 8.76523C81.6163 9.75927 81.1689 10.4639 80.3855 10.8815C79.6719 11.2649 78.3835 11.5189 76.5987 11.6407L77.1236 6.59537ZM20.4097 23.4152L27.3464 22.9619L28.0948 26.0242L32.7693 25.7195L33.7716 25.654L38.0679 25.3742L39.1789 13.7722L45.7746 24.8709L50.1563 24.5841L50.8544 17.5116C51.4024 19.1258 52.0196 20.5583 53.2103 21.7725C55.106 23.7073 57.5759 24.5762 60.564 24.3798C63.8424 24.1629 66.6299 22.9533 68.7534 20.7583C69.6116 19.8695 70.1822 18.8672 71.0087 17.7176L70.4365 23.249L75.4206 22.9199L76.1219 16.2076L79.4815 22.651L85.8669 22.2268L81.4534 15.4291C83.1202 14.7328 84.4173 13.802 85.3464 12.6043C86.2762 11.4063 86.8332 9.94603 87.0179 8.20894C87.0739 7.68146 87.0888 7.18808 87.0679 6.72484L89.8302 14.2599L88.9891 22.0321L93.9775 21.6993L94.8275 13.9222L102.478 0.170532L97.0448 0.549009L93.013 8.5702L90.755 0.985764L85.1073 1.37715L85.8716 3.46126C85.5206 3.07484 85.0957 2.75 84.5914 2.49305C83.3491 1.86093 81.6507 1.60961 79.4981 1.75894L72.6024 2.23411L72.0255 7.85464C71.7037 7.53047 71.663 7.19537 71.4904 6.8798C71.2312 6.41027 70.8931 5.96987 70.551 5.55364C70.1454 5.10331 69.6206 4.64702 69.014 4.18146C67.2355 2.91788 65.111 2.37119 62.6583 2.53974C59.4696 2.7596 56.6686 4.08212 54.3802 6.49901C53.1176 7.83841 52.3729 9.27848 51.5087 10.8626L52.2163 3.6351L47.2123 3.97715L46.0808 15.6536L39.4438 4.50729L34.706 4.82947L32.9759 23.198L27.6 5.31225L23.4057 5.59669L13.4106 26.9765L18.9971 26.6142L20.4097 23.4152Z" fill="#F45959"></path></g></svg>